<svg xmlns="http://www.w3.org/2000/svg" width="36.943" height="38.074" viewBox="0 0 36.943 38.074">
  <g id="Group_18196" data-name="Group 18196" transform="translate(-465.609 -4018.91)">
    <g id="logo_final-01" data-name="logo final-01" transform="translate(465.609 4018.91)">
      <g id="Path_13924" data-name="Path 13924" transform="translate(-268 -227.86)" fill="#e2495f">
        <path d="M 286.4715881347656 263.4346618652344 C 282.2053527832031 263.4346618652344 278.1945190429688 261.7734069824219 275.1779174804688 258.7568969726562 C 272.1612854003906 255.7403259277344 270.4999389648438 251.7294464111328 270.4999389648438 247.4630737304688 L 270.4999389648438 233.99462890625 C 275.4547729492188 231.6132965087891 280.9325866699219 230.3604583740234 286.4334411621094 230.3604583740234 C 291.9624328613281 230.3604583740234 297.4684753417969 231.6262969970703 302.4432373046875 234.0314025878906 L 302.4432373046875 247.4630737304688 C 302.4432373046875 247.9249725341797 302.4237976074219 248.3855285644531 302.3854370117188 248.8319244384766 C 302.0482482910156 252.8047485351562 300.2431335449219 256.4864807128906 297.302490234375 259.2013854980469 C 294.3456420898438 261.9312744140625 290.4991455078125 263.4346618652344 286.4715881347656 263.4346618652344 Z" stroke="none"/>
        <path d="M 286.4334411621094 232.8604736328125 C 281.8254699707031 232.8604736328125 277.2348937988281 233.8037414550781 272.9999389648438 235.6062316894531 L 272.9999389648438 247.4630737304688 C 272.9999389648438 251.0616607666016 274.4012145996094 254.4447326660156 276.9456787109375 256.9891052246094 C 279.4900817871094 259.533447265625 282.8731079101562 260.9346618652344 286.4715881347656 260.9346618652344 C 289.8687438964844 260.9346618652344 293.1129455566406 259.666748046875 295.6066284179688 257.3645324707031 C 298.0874328613281 255.0741577148438 299.6101379394531 251.9696807861328 299.8941955566406 248.6230010986328 L 299.8944091796875 248.6204986572266 L 299.8946228027344 248.6179809570312 C 299.9268798828125 248.242431640625 299.9432373046875 247.8538513183594 299.9432373046875 247.4630737304688 L 299.9432373046875 235.6387939453125 C 295.6872253417969 233.8152160644531 291.0689697265625 232.8604736328125 286.4334411621094 232.8604736328125 M 286.4334411621094 227.8604736328125 C 292.7555847167969 227.8604736328125 299.0777282714844 229.3865966796875 304.8301391601562 232.4388427734375 C 304.8459167480469 232.4463195800781 304.861328125 232.45458984375 304.8762817382812 232.463623046875 L 304.9432373046875 232.4997253417969 L 304.9432373046875 247.4630737304688 C 304.9432373046875 247.9984741210938 304.9209289550781 248.5260772705078 304.8762817382812 249.0458831787109 C 304.0732116699219 258.5071716308594 296.1397399902344 265.9346618652344 286.4715881347656 265.9346618652344 C 276.2700500488281 265.9346618652344 267.9999389648438 257.6652526855469 267.9999389648438 247.4630737304688 L 267.9999389648438 232.458251953125 C 268.0119934082031 232.4515380859375 268.0240173339844 232.4448547363281 268.0367431640625 232.4388427734375 C 273.7891540527344 229.3865966796875 280.1112976074219 227.8604736328125 286.4334411621094 227.8604736328125 Z" stroke="none" fill="#e2495f"/>
      </g>
    </g>
    <g id="Group_18195" data-name="Group 18195" transform="translate(474.169 4026.677)">
      <path id="path4554" d="M7.4,280.6H22.569a2.318,2.318,0,0,1,2.323,2.323V298.9a2.318,2.318,0,0,1-2.323,2.323H7.4A2.318,2.318,0,0,1,5.072,298.9V282.918A2.318,2.318,0,0,1,7.4,280.6Z" transform="translate(-5.072 -280.595)" fill="#fff"/>
      <path id="path4556-4" d="M7.884,280.6v6.168a1.089,1.089,0,0,0,1.092,1.091H12a1.089,1.089,0,0,0,1.092-1.091V280.6Z" transform="translate(-0.575 -280.596)" fill="#e2495f"/>
    </g>
  </g>
</svg>
