<svg xmlns="http://www.w3.org/2000/svg" width="27.777" height="27.777" viewBox="0 0 27.777 27.777">
  <path id="directions-solid" d="M27.267,12.658,15.119.509a1.741,1.741,0,0,0-2.461,0L.509,12.658a1.741,1.741,0,0,0,0,2.461L12.658,27.267a1.74,1.74,0,0,0,2.461,0L27.267,15.119A1.741,1.741,0,0,0,27.267,12.658Zm-5.478.681-4.569,4.217a.434.434,0,0,1-.729-.319V14.322H11.284v3.472a.434.434,0,0,1-.434.434H9.114a.434.434,0,0,1-.434-.434v-4.34a1.736,1.736,0,0,1,1.736-1.736h6.076V8.8a.434.434,0,0,1,.729-.319L21.789,12.7a.434.434,0,0,1,0,.638Z" fill="#3c8623"/>
</svg>
